<svg viewBox="0 0 1024 1024" xmlns="http://www.w3.org/2000/svg">
  <path
    d="M609.3824 507.2896a193.7408 193.7408 0 1 1-36.9664 28.7744L471.04 393.5232a140.6976 140.6976 0 0 1-62.1568 14.2336 133.632 133.632 0 0 1-14.4384-0.7168l-65.024 241.8688a136.192 136.192 0 1 1-44.3392-17.7152L348.16 394.5472a142.2336 142.2336 0 1 1 199.68-158.1056H645.12a97.5872 97.5872 0 1 1 0 47.4112h-95.4368a142.4384 142.4384 0 0 1-40.96 82.5344zM563.2 673.8944a145.92 145.92 0 1 0 42.8032-103.1168A145.8176 145.8176 0 0 0 563.2 673.8944z m-306.176 2.7648a88.2688 88.2688 0 1 0 62.5664 25.9072 88.3712 88.3712 0 0 0-62.5664-25.9072zM739.4304 317.44a57.4464 57.4464 0 1 0-57.4464-57.344 57.4464 57.4464 0 0 0 57.4464 57.344zM409.6 166.2976a99.84 99.84 0 1 0 70.5536 29.184A99.84 99.84 0 0 0 409.6 166.2976z m0 0"
    fill="currentColor"></path>
</svg>