<?xml version="1.0" standalone="no"?><!DOCTYPE svg PUBLIC "-//W3C//DTD SVG 1.1//EN" "http://www.w3.org/Graphics/SVG/1.1/DTD/svg11.dtd"><svg t="1750568504831" class="icon" viewBox="0 0 1024 1024" version="1.1" xmlns="http://www.w3.org/2000/svg" p-id="2647" xmlns:xlink="http://www.w3.org/1999/xlink" width="200" height="200"><path d="M732.256 127.584c16.8 26.656 25.024 56.48 25.984 87.456 0.832 29.504-1.216 59.104-3.296 88.608-0.448 6.688 0.48 10.88 5.344 14.816a164.8 164.8 0 0 1 46.144 56.896c28.896 59.232 31.36 118.016-4.224 176a18.656 18.656 0 0 0-0.8 15.36c27.616 57.6 27.744 116.64 9.792 176.544-3.136 10.464-9.92 19.84-14.784 29.92-1.216 2.496-2.72 5.984-1.856 8.032 20.96 47.232 25.888 96.16 17.248 146.784h-51.072c13.152-34.88 9.792-69.664-1.088-104.064-4.16-13.12-9.92-25.76-16.16-38.08-5.12-10.336-4.704-20 2.88-27.776 21.792-22.304 27.296-50.016 28.736-79.36 1.44-30.24-0.768-60.032-14.944-87.712a73.6 73.6 0 0 0-9.44-14.4c-9.376-11.232-10.144-26.272-0.16-36.608 36.288-37.312 37.568-96.928 14.688-140.928-19.456-37.376-48.224-62.528-91.2-68.352-7.872-1.088-16.16 0.128-24.16 0.832-16.16 1.44-23.04-1.792-29.824-16-26.24-54.848-106.912-90.336-170.912-48.448-20.256 13.248-37.056 28.64-47.168 50.784-4.928 10.976-14.016 15.744-25.376 13.76-89.664-15.616-155.392 91.36-127.456 167.264 5.44 14.72 14.976 28.224 24.032 41.312 7.52 10.752 8.512 24.16 1.792 34.176-7.2 10.752-15.072 21.792-18.72 33.92-12.032 39.584-12.512 79.68 1.28 119.04 3.424 9.792 10.24 18.752 16.864 27.008 9.088 11.264 11.456 19.936 4.224 33.824a212.064 212.064 0 0 0-24.224 85.888A111.808 111.808 0 0 0 263.904 928H212.768c-10.592-48.992-4.224-96.288 14.08-142.496a18.816 18.816 0 0 0-1.088-14.464c-29.536-53.344-31.296-109.376-17.376-166.88 3.2-13.312 10.016-25.696 14.304-38.72 1.28-4 1.376-9.984-0.768-13.248-30.4-46.784-32.544-96.864-16.832-148.416a168.096 168.096 0 0 1 57.6-84.544c6.08-4.768 6.496-10.24 5.504-17.28-6.944-49.664-8.224-99.136 10.08-146.944 5.12-13.44 12.224-26.848 21.312-37.952 24.096-29.344 61.856-27.2 85.248 2.688 21.664 27.84 28.896 60.704 34.624 94.24 0.704 4.128 1.28 8.256 2.048 13.888 60.096-35.04 119.744-35.392 179.584-0.352 4.032-18.592 7.52-36.8 11.968-54.848 5.216-21.12 14.144-41.024 29.248-56.832 29.312-30.752 66.784-24.928 89.952 11.744z m-175.008 324.192c34.208 11.2 61.888 30.752 75.904 64.384 19.008 45.632 1.792 89.28-40 112.448-27.104 15.04-37.568 16.576-78.176 16.736h-7.936c-22.432-0.288-48.832-1.6-74.08-14.72-51.552-27.104-66.368-90.88-30.08-136.32 34.432-43.2 98.656-60.768 154.368-42.528z m-124.992 57.408c-28.608 29.44-20.608 75.776 16.64 93.504 19.84 9.472 40.352 12.384 60.896 10.752 9.856 0 18.784 0.704 27.584-0.16 24.256-2.336 46.08-10.816 60.8-31.04 22.592-31.04 8.16-62.592-18.688-83.232-41.312-31.904-109.056-29.12-147.232 10.176z m73.504 13.6a24.96 24.96 0 0 0 11.456-0.448c7.808-1.92 15.456-3.84 20.736 4.288 5.376 8.256-0.224 14.72-6.016 18.656-8.064 5.568-9.152 11.52-7.136 20.384 2.08 9.088-3.52 14.4-13.12 14.528-11.712 0.256-17.568-6.016-14.624-17.248 1.92-7.36 0.864-11.904-5.728-16.448-6.656-4.576-13.44-10.976-7.424-20.16 5.568-8.544 13.76-5.696 21.856-3.552z m-153.472-71.52c16.672 0.16 29.984 12.96 29.888 28.8-0.128 19.2-15.776 36.576-32.896 36.512-17.504-0.128-31.168-12.96-31.04-29.12 0.16-20.8 14.816-36.384 34.048-36.16z m318.816-0.064c18.976-0.192 34.048 15.808 34.112 36.16 0 16.192-13.76 29.152-31.104 29.216-17.152 0.064-32.672-17.248-32.832-36.608-0.128-15.936 12.96-28.544 29.824-28.768zM329.824 155.648c-5.856 12.32-10.656 25.6-13.728 38.88-6.336 27.52-7.36 55.36-3.52 83.072l1.664 10.304c14.592-1.632 27.52-3.712 40.576-4.48 14.208-0.864 19.84-5.856 19.584-20.288a664.96 664.96 0 0 0-1.92-41.472 154.944 154.944 0 0 0-20.8-66.496c-8.768-14.752-14.624-14.688-21.856 0.48z m352.512-11.52c-4.704 5.408-10.656 10.112-13.856 16.32-17.248 33.44-20.384 69.76-19.104 106.56 0.224 6.848 2.24 15.488 12.736 16.256 15.296 1.152 30.592 2.72 48.704 4.352 0-24.064 1.856-48.352-0.576-72.224-1.92-18.72-8.576-37.12-14.656-55.168-2.08-6.144-8.736-10.752-13.248-16.096z" fill="#808182" p-id="2648"></path></svg>