<?xml version="1.0" standalone="no"?><!DOCTYPE svg PUBLIC "-//W3C//DTD SVG 1.1//EN" "http://www.w3.org/Graphics/SVG/1.1/DTD/svg11.dtd"><svg t="1750568490004" class="icon" viewBox="0 0 1024 1024" version="1.1" xmlns="http://www.w3.org/2000/svg" p-id="1654" xmlns:xlink="http://www.w3.org/1999/xlink" width="200" height="200"><path d="M877.312 434.688c10.667-29.355 13.355-58.71 10.667-88.021-2.646-29.355-13.312-58.667-26.667-85.334-23.979-40.021-58.667-72.021-98.645-90.666-42.667-18.688-88.022-24.022-133.334-13.355-21.333-21.333-45.354-39.979-72.021-53.333-26.667-13.27-58.667-18.646-87.979-18.646a220.587 220.587 0 0 0-128 40.022c-37.333 26.624-64 64-77.354 106.666-32 7.979-58.667 21.334-85.334 37.334C154.667 288 135.98 312.02 119.98 336c-23.979 40.021-32 85.333-26.667 130.688a232.021 232.021 0 0 0 53.333 122.624 200.32 200.32 0 0 0-10.666 88.021c2.688 29.355 13.354 58.667 26.666 85.334 24.022 40.021 58.667 72.021 98.688 90.666 42.667 18.688 87.979 24.022 133.334 13.355 21.333 21.333 45.312 39.979 71.978 53.333 26.667 13.312 58.667 18.646 88.022 18.646a220.587 220.587 0 0 0 128-40.022c37.333-26.666 64-64 77.312-106.666a193.835 193.835 0 0 0 82.688-37.334C866.645 736 887.979 714.667 901.333 688c23.979-40.021 32-85.333 26.667-130.688-5.333-45.312-21.333-87.979-50.688-122.624z m-320 448c-42.667 0-74.667-13.355-103.979-37.333 0 0 2.646-2.688 5.334-2.688l170.666-98.688A20.821 20.821 0 0 0 640 733.312c2.645-5.333 2.645-7.979 2.645-13.312V480l72.022 42.667V720a157.227 157.227 0 0 1-157.355 162.688zM213.333 736c-18.688-32-26.666-69.333-18.688-106.667 0 0 2.688 2.688 5.334 2.688l170.666 98.646A24.021 24.021 0 0 0 384 733.355c5.333 0 10.667 0 13.312-2.688l208-120.022v82.688L432 794.667a158.293 158.293 0 0 1-120.021 16C269.312 800 234.667 773.333 213.333 736zM167.98 365.312a162.432 162.432 0 0 1 82.688-69.29v202.666c0 5.29 0 10.667 2.645 13.312a20.821 20.821 0 0 0 10.667 10.667l208 120.021L400 685.355l-170.667-98.688a157.739 157.739 0 0 1-74.666-96c-10.667-40.022-8.022-88.022 13.312-125.355z m589.354 136.021l-208-120.021 71.979-42.667 170.667 98.688c26.666 16 48 37.334 61.354 64 13.312 26.667 21.334 56.022 18.646 88.022a158.635 158.635 0 0 1-32 82.645c-18.646 24.021-42.667 42.667-71.979 53.333V522.667c0-5.334 0-10.667-2.688-13.355 0 0-2.645-5.29-7.979-7.979z m71.979-106.666s-2.645-2.688-5.333-2.688l-170.667-98.646c-5.333-2.688-7.979-2.688-13.312-2.688s-10.667 0-13.355 2.688l-208 120.022v-82.688L592 229.333c26.667-16 55.979-21.333 87.979-21.333 29.354 0 58.666 10.667 85.333 29.355 24.021 18.645 45.355 42.666 56.021 69.333s13.312 58.667 7.979 87.979zM381.312 544l-71.979-42.667V301.312c0-29.312 7.979-61.312 23.979-85.333 16-26.624 40.021-45.312 66.688-58.624a143.573 143.573 0 0 1 87.979-13.312c29.354 2.688 58.666 16 82.688 34.688 0 0-2.688 2.645-5.334 2.645l-170.666 98.688A20.821 20.821 0 0 0 384 290.731c-2.688 5.333-2.688 7.978-2.688 13.312v240z m37.333-85.333L512 405.333l93.312 53.334v106.666L512 618.667l-93.355-53.334V458.667z" p-id="1655"></path></svg>