<?xml version="1.0" standalone="no"?><!DOCTYPE svg PUBLIC "-//W3C//DTD SVG 1.1//EN" "http://www.w3.org/Graphics/SVG/1.1/DTD/svg11.dtd"><svg t="1750568526931" class="icon" viewBox="0 0 1024 1024" version="1.1" xmlns="http://www.w3.org/2000/svg" p-id="3687" xmlns:xlink="http://www.w3.org/1999/xlink" width="200" height="200"><path d="M384.128 521.984c22.08 24.416 47.072 45.984 74.496 64.224 23.52 15.744 48.608 28.96 74.88 39.52a566.304 566.304 0 0 0 116.704-156.576L822.56 128l-300.544 236.256a567.104 567.104 0 0 0-137.92 157.76zM359.52 734.432a828.416 828.416 0 0 1-61.216-45.184L194.048 896l187.392-147.328c-7.36-4.704-14.72-9.376-21.92-14.24z" fill="#808182" p-id="3688"></path><path d="M746.112 402.4c56.48 74.88 72.96 158.08 34.688 215.36-55.904 83.648-207.488 80.416-338.56-7.168s-192-226.368-136.096-310.016c38.304-57.28 121.472-73.824 212.288-50.368-157.056-66.688-306.464-60.096-364.416 26.432-72.736 108.864 26.592 303.136 221.824 433.408 195.2 130.272 412.512 147.936 485.248 39.136 57.888-86.688 6.656-227.232-114.976-346.784z" fill="#808182" p-id="3689"></path></svg>