<svg xmlns="http://www.w3.org/2000/svg" viewBox="0 0 1024 1024">
    <path d="m875.2 259.9-342-168.3c-14-6.9-30-6.9-44 0L147.2 259.9c-14.9 7.3-24.4 22.4-24.4 38.8v387c0 16.4 9.5 31.5 24.4 38.8l342 168.3c7 3.4 14.5 5.2 22 5.2s15-1.7 22-5.2l342-168.3c14.9-7.3 24.4-22.4 24.4-38.8v-387c0-16.4-9.5-31.5-24.4-38.8zM511.2 82.1c11.3-5.6 24.3-5.6 35.6 0l342 168.3c12 5.9 19.6 18 19.6 31.2v387c0 13.2-7.5 25.3-19.6 31.2l-342 168.3c-11.3 5.6-24.3 5.6-35.6 0L169.2 828c-12-5.9-19.6-18-19.6-31.2v-387c0-13.2 7.5-25.3 19.6-31.2l342-168.3z" fill="currentColor"/>
    <path d="M511.2 447.1c-34.9 0-63.3 28.4-63.3 63.3s28.4 63.3 63.3 63.3 63.3-28.4 63.3-63.3-28.4-63.3-63.3-63.3z" fill="currentColor"/>
    <path d="m662.9 554.4-53.1 26.2c-5.1 2.5-10.9 2.5-16 0l-53.1-26.2c-4.4-2.2-7.2-6.7-7.2-11.6v-52.3c0-4.9 2.8-9.5 7.2-11.6l53.1-26.2c5.1-2.5 10.9-2.5 16 0l53.1 26.2c4.4 2.2 7.2 6.7 7.2 11.6v52.3c0 4.9-2.8 9.4-7.2 11.6zM604 473.4c-3.1-1.5-6.6-1.5-9.7 0l-41.2 20.3c-.9.4-1.5 1.3-1.5 2.3v40.6c0 1 .6 1.9 1.5 2.3l41.2 20.3c3.1 1.5 6.6 1.5 9.7 0l41.2-20.3c.9-.4 1.5-1.3 1.5-2.3v-40.6c0-1-.6-1.9-1.5-2.3l-41.2-20.3z" fill="currentColor"/>
    <path d="m361.9 554.4-53.1 26.2c-5.1 2.5-10.9 2.5-16 0L239.7 554c-4.4-2.2-7.2-6.7-7.2-11.6v-52.3c0-4.9 2.8-9.5 7.2-11.6l53.1-26.2c5.1-2.5 10.9-2.5 16 0l53.1 26.2c4.4 2.2 7.2 6.7 7.2 11.6v52.3c0 4.9-2.8 9.4-7.2 11.6zm-58.8-81c-3.1-1.5-6.6-1.5-9.7 0l-41.2 20.3c-.9.4-1.5 1.3-1.5 2.3v40.6c0 1 .6 1.9 1.5 2.3l41.2 20.3c3.1 1.5 6.6 1.5 9.7 0l41.2-20.3c.9-.4 1.5-1.3 1.5-2.3v-40.6c0-1-.6-1.9-1.5-2.3l-41.2-20.3z" fill="currentColor"/>
    <path d="m511.2 705.1-53.1 26.2c-5.1 2.5-10.9 2.5-16 0l-53.1-26.2c-4.4-2.2-7.2-6.7-7.2-11.6v-52.3c0-4.9 2.8-9.5 7.2-11.6l53.1-26.2c5.1-2.5 10.9-2.5 16 0l53.1 26.2c4.4 2.2 7.2 6.7 7.2 11.6v52.3c0 4.9-2.8 9.4-7.2 11.6zm-58.8-81c-3.1-1.5-6.6-1.5-9.7 0l-41.2 20.3c-.9.4-1.5 1.3-1.5 2.3v40.6c0 1 .6 1.9 1.5 2.3l41.2 20.3c3.1 1.5 6.6 1.5 9.7 0l41.2-20.3c.9-.4 1.5-1.3 1.5-2.3v-40.6c0-1-.6-1.9-1.5-2.3l-41.2-20.3z" fill="currentColor"/>
    <path d="m511.2 389.2-53.1 26.2c-5.1 2.5-10.9 2.5-16 0l-53.1-26.2c-4.4-2.2-7.2-6.7-7.2-11.6V325c0-4.9 2.8-9.5 7.2-11.6l53.1-26.2c5.1-2.5 10.9-2.5 16 0l53.1 26.2c4.4 2.2 7.2 6.7 7.2 11.6v52.3c0 4.9-2.8 9.4-7.2 11.6zm-58.8-81c-3.1-1.5-6.6-1.5-9.7 0l-41.2 20.3c-.9.4-1.5 1.3-1.5 2.3v40.6c0 1 .6 1.9 1.5 2.3l41.2 20.3c3.1 1.5 6.6 1.5 9.7 0l41.2-20.3c.9-.4 1.5-1.3 1.5-2.3v-40.6c0-1-.6-1.9-1.5-2.3l-41.2-20.3z" fill="currentColor"/>
    <path d="M511.2 573.3c-28.7 0-52.1-23.4-52.1-52.1s23.4-52.1 52.1-52.1 52.1 23.4 52.1 52.1-23.4 52.1-52.1 52.1zm0-64.2c-6.7 0-12.1 5.4-12.1 12.1s5.4 12.1 12.1 12.1 12.1-5.4 12.1-12.1-5.4-12.1-12.1-12.1z" fill="currentColor"/>
</svg> 